# xmcd
#
# Track frame offsets:
#	150
#	19568
#	36579
#	49604
#	63212
#	79309
#	105120
#	122894
#	142425
#	157878
#	177559
#	192499
#	209396
#	228409
#
# Disc length: 3439 seconds
#
# Revision: 0
# Processed by: cddbd v1.5.2PL0 Copyright (c) Steve Scherf et al.
# Submitted via: EZCDAudioConverter 3.0.7.1
#
DISCID=c40d6d0e
DTITLE=Huojuva Lato - Lauluja menneiltä kesiltä
DYEAR=2014
DGENRE=
TTITLE0=Ajan pojan kanssa
TTITLE1=Juna menee lapsuuteen
TTITLE2=Laiturin alla
TTITLE3=Virran Ola on vielä kuningas (Bob Wills Is Still The King)
TTITLE4=Tiellä taas (On The Roas Again)
TTITLE5=Taaksepäin
TTITLE6=Pieni valssi
TTITLE7=Sydänkesän vihreät niityt
TTITLE8=Kosmiset huolet
TTITLE9=Suoniityllä
TTITLE10=Elokuun viimeiset päivät
TTITLE11=Maalaismaisemaa (Country Comfort)
TTITLE12=Viimeinen virsi (Iltahetki)
TTITLE13=Syksyn tähtien alla
EXTD=
EXTT0=
EXTT1=
EXTT2=
EXTT3=
EXTT4=
EXTT5=
EXTT6=
EXTT7=
EXTT8=
EXTT9=
EXTT10=
EXTT11=
EXTT12=
EXTT13=
PLAYORDER=
